<svg xmlns="http://www.w3.org/2000/svg" style="background: transparent; background-color: transparent; color-scheme: light dark;" xmlns:xlink="http://www.w3.org/1999/xlink" version="1.1" width="776px" height="616px" viewBox="0 0 776 616"><defs/><g><g data-cell-id="0"><g data-cell-id="1"><g data-cell-id="title"><g transform="translate(0.5,0.5)"><rect x="195" y="0" width="400" height="30" fill="none" stroke="none" pointer-events="all"/></g><g><g fill="#1a1a2e" font-family="Helvetica" font-weight="bold" text-anchor="middle" font-size="20px" style="fill: light-dark(rgb(26, 26, 46), rgb(213, 213, 230));"><text x="395" y="26">Agent-Wiki 系统架构总览</text></g></g></g><g data-cell-id="agent-layer"><g transform="translate(0.5,0.5)"><path d="M 775 65 L 775 46 Q 775 40 769 40 L 21 40 Q 15 40 15 46 L 15 65" fill="#f3e5f5" stroke="#7b1fa2" stroke-miterlimit="10" pointer-events="all" style="fill: light-dark(rgb(243, 229, 245), rgb(45, 33, 47)); stroke: light-dark(rgb(123, 31, 162), rgb(239, 160, 255));"/><path d="M 15 65 L 15 144 Q 15 150 21 150 L 769 150 Q 775 150 775 144 L 775 65" fill="none" stroke="#7b1fa2" stroke-miterlimit="10" pointer-events="none" style="stroke: light-dark(rgb(123, 31, 162), rgb(239, 160, 255));"/><path d="M 15 65 L 775 65" fill="none" stroke="#7b1fa2" stroke-miterlimit="10" pointer-events="none" style="stroke: light-dark(rgb(123, 31, 162), rgb(239, 160, 255));"/></g><g><g fill="#000000" font-family="Helvetica" font-weight="bold" text-anchor="middle" font-size="12px" style="fill: light-dark(rgb(0, 0, 0), rgb(255, 255, 255));"><text x="395" y="57.5">Agent 层（Thin Client）</text></g></g><g data-cell-id="hermes"><g transform="translate(0.5,0.5)"><rect x="35" y="75" width="100" height="55" rx="8.25" ry="8.25" fill="#ce93d8" stroke="#7b1fa2" pointer-events="all" style="fill: light-dark(rgb(206, 147, 216), rgb(132, 81, 141)); stroke: light-dark(rgb(123, 31, 162), rgb(239, 160, 255));"/></g><g><g fill="#000000" font-family="Helvetica" font-weight="bold" text-anchor="middle" font-size="11px" style="fill: light-dark(rgb(0, 0, 0), rgb(255, 255, 255));"><text x="85" y="100.5">Hermes</text><text x="85" y="113.5">T1 Full</text></g></g></g><g data-cell-id="openclaw"><g transform="translate(0.5,0.5)"><rect x="155" y="75" width="100" height="55" rx="8.25" ry="8.25" fill="#ce93d8" stroke="#7b1fa2" pointer-events="all" style="fill: light-dark(rgb(206, 147, 216), rgb(132, 81, 141)); stroke: light-dark(rgb(123, 31, 162), rgb(239, 160, 255));"/></g><g><g fill="#000000" font-family="Helvetica" font-weight="bold" text-anchor="middle" font-size="11px" style="fill: light-dark(rgb(0, 0, 0), rgb(255, 255, 255));"><text x="205" y="100.5">OpenClaw</text><text x="205" y="113.5">T1 Full</text></g></g></g><g data-cell-id="cc"><g transform="translate(0.5,0.5)"><rect x="275" y="75" width="110" height="55" rx="8.25" ry="8.25" fill="#b39ddb" stroke="#512da8" pointer-events="all" style="fill: light-dark(rgb(179, 157, 219), rgb(105, 86, 139)); stroke: light-dark(rgb(81, 45, 168), rgb(201, 170, 255));"/></g><g><g fill="#000000" font-family="Helvetica" font-weight="bold" text-anchor="middle" font-size="11px" style="fill: light-dark(rgb(0, 0, 0), rgb(255, 255, 255));"><text x="330" y="100.5">Claude Code</text><text x="330" y="113.5">T2 Standard</text></g></g></g><g data-cell-id="codex"><g transform="translate(0.5,0.5)"><rect x="405" y="75" width="100" height="55" rx="8.25" ry="8.25" fill="#9fa8da" stroke="#283593" pointer-events="all" style="fill: light-dark(rgb(159, 168, 218), rgb(83, 90, 133)); stroke: light-dark(rgb(40, 53, 147), rgb(174, 185, 255));"/></g><g><g fill="#000000" font-family="Helvetica" font-weight="bold" text-anchor="middle" font-size="11px" style="fill: light-dark(rgb(0, 0, 0), rgb(255, 255, 255));"><text x="455" y="100.5">Codex</text><text x="455" y="113.5">T3 Minimal</text></g></g></g><g data-cell-id="opencode"><g transform="translate(0.5,0.5)"><rect x="525" y="75" width="100" height="55" rx="8.25" ry="8.25" fill="#9fa8da" stroke="#283593" pointer-events="all" style="fill: light-dark(rgb(159, 168, 218), rgb(83, 90, 133)); stroke: light-dark(rgb(40, 53, 147), rgb(174, 185, 255));"/></g><g><g fill="#000000" font-family="Helvetica" font-weight="bold" text-anchor="middle" font-size="11px" style="fill: light-dark(rgb(0, 0, 0), rgb(255, 255, 255));"><text x="575" y="100.5">OpenCode</text><text x="575" y="113.5">T3 Minimal</text></g></g></g><g data-cell-id="human"><g transform="translate(0.5,0.5)"><rect x="655" y="75" width="110" height="55" rx="8.25" ry="8.25" fill="#ef9a9a" stroke="#c62828" pointer-events="all" style="fill: light-dark(rgb(239, 154, 154), rgb(147, 74, 74)); stroke: light-dark(rgb(198, 40, 40), rgb(255, 145, 145));"/></g><g><g fill="#000000" font-family="Helvetica" font-weight="bold" text-anchor="middle" font-size="11px" style="fill: light-dark(rgb(0, 0, 0), rgb(255, 255, 255));"><text x="710" y="100.5">👤 Human</text><text x="710" y="113.5">actor_type=human</text></g></g></g></g><g data-cell-id="transport-label"><g transform="translate(0.5,0.5)"><rect x="-5" y="175" width="30" height="20" fill="none" stroke="none" transform="rotate(-90,10,185)" pointer-events="all"/></g><g><g fill="#37474f" font-family="Helvetica" font-weight="bold" text-anchor="start" transform="rotate(-90,7,198)" font-size="11px" style="fill: light-dark(rgb(55, 71, 79), rgb(167, 181, 188));"><text x="7" y="208">传输层</text></g></g></g><g data-cell-id="mcp-transport"><g transform="translate(0.5,0.5)"><rect x="95" y="170" width="180" height="45" rx="6.75" ry="6.75" fill="#e1f5fe" stroke="#0277bd" pointer-events="all" style="fill: light-dark(rgb(225, 245, 254), rgb(15, 33, 40)); stroke: light-dark(rgb(2, 119, 189), rgb(69, 169, 229));"/></g><g><g fill="#000000" font-family="Helvetica" font-weight="bold" text-anchor="middle" font-size="10px" style="fill: light-dark(rgb(0, 0, 0), rgb(255, 255, 255));"><text x="185" y="190.5">MCP Server</text><text x="185" y="202.5">（主接口 · C级必须）</text></g></g></g><g data-cell-id="cli-transport"><g transform="translate(0.5,0.5)"><rect x="305" y="170" width="140" height="45" rx="6.75" ry="6.75" fill="#e1f5fe" stroke="#0277bd" pointer-events="all" style="fill: light-dark(rgb(225, 245, 254), rgb(15, 33, 40)); stroke: light-dark(rgb(2, 119, 189), rgb(69, 169, 229));"/></g><g><g fill="#000000" font-family="Helvetica" font-weight="bold" text-anchor="middle" font-size="10px" style="fill: light-dark(rgb(0, 0, 0), rgb(255, 255, 255));"><text x="375" y="190.5">CLI (aw)</text><text x="375" y="202.5">（A/B级）</text></g></g></g><g data-cell-id="rest-transport"><g transform="translate(0.5,0.5)"><rect x="475" y="170" width="150" height="45" rx="6.75" ry="6.75" fill="#e1f5fe" stroke="#0277bd" pointer-events="all" style="fill: light-dark(rgb(225, 245, 254), rgb(15, 33, 40)); stroke: light-dark(rgb(2, 119, 189), rgb(69, 169, 229));"/></g><g><g fill="#000000" font-family="Helvetica" font-weight="bold" text-anchor="middle" font-size="10px" style="fill: light-dark(rgb(0, 0, 0), rgb(255, 255, 255));"><text x="550" y="190.5">REST API</text><text x="550" y="202.5">（对齐CLI权限）</text></g></g></g><g data-cell-id="e-h-mcp"><g><path d="M 85 130 L 142.02 165.63" fill="none" stroke="#7b1fa2" stroke-width="2" stroke-miterlimit="10" pointer-events="stroke" style="stroke: light-dark(rgb(123, 31, 162), rgb(239, 160, 255));"/><path d="M 147.1 168.81 L 138.2 167.97 L 142.02 165.63 L 142.44 161.18 Z" fill="#7b1fa2" stroke="#7b1fa2" stroke-width="2" stroke-miterlimit="10" pointer-events="all" style="fill: light-dark(rgb(123, 31, 162), rgb(239, 160, 255)); stroke: light-dark(rgb(123, 31, 162), rgb(239, 160, 255));"/></g></g><g data-cell-id="e-oc-mcp"><g><path d="M 205 130 L 188.68 162.63" fill="none" stroke="#7b1fa2" stroke-width="2" stroke-miterlimit="10" pointer-events="stroke" style="stroke: light-dark(rgb(123, 31, 162), rgb(239, 160, 255));"/><path d="M 186 168 L 186 159.06 L 188.68 162.63 L 193.16 162.63 Z" fill="#7b1fa2" stroke="#7b1fa2" stroke-width="2" stroke-miterlimit="10" pointer-events="all" style="fill: light-dark(rgb(123, 31, 162), rgb(239, 160, 255)); stroke: light-dark(rgb(123, 31, 162), rgb(239, 160, 255));"/></g></g><g data-cell-id="e-cc-cli"><g transform="translate(0.5,0.5)"><path d="M 330 130 L 369.54 165.15" fill="none" stroke="#512da8" stroke-width="1.5" stroke-miterlimit="10" pointer-events="stroke" style="stroke: light-dark(rgb(81, 45, 168), rgb(201, 170, 255));"/><path d="M 373.75 168.89 L 365.65 166.71 L 369.54 165.15 L 370.63 161.1 Z" fill="#512da8" stroke="#512da8" stroke-width="1.5" stroke-miterlimit="10" pointer-events="all" style="fill: light-dark(rgb(81, 45, 168), rgb(201, 170, 255)); stroke: light-dark(rgb(81, 45, 168), rgb(201, 170, 255));"/></g></g><g data-cell-id="e-cdx-cli"><g transform="translate(0.5,0.5)"><path d="M 455 130 L 352.97 167.79" fill="none" stroke="#283593" stroke-miterlimit="10" pointer-events="stroke" style="stroke: light-dark(rgb(40, 53, 147), rgb(174, 185, 255));"/><path d="M 348.05 169.61 L 353.4 163.9 L 352.97 167.79 L 355.83 170.46 Z" fill="#283593" stroke="#283593" stroke-miterlimit="10" pointer-events="all" style="fill: light-dark(rgb(40, 53, 147), rgb(174, 185, 255)); stroke: light-dark(rgb(40, 53, 147), rgb(174, 185, 255));"/></g></g><g data-cell-id="e-oc2-cli"><g transform="translate(0.5,0.5)"><path d="M 575 130 L 409.2 168.56" fill="none" stroke="#283593" stroke-miterlimit="10" pointer-events="stroke" style="stroke: light-dark(rgb(40, 53, 147), rgb(174, 185, 255));"/><path d="M 404.09 169.75 L 410.11 164.75 L 409.2 168.56 L 411.7 171.57 Z" fill="#283593" stroke="#283593" stroke-miterlimit="10" pointer-events="all" style="fill: light-dark(rgb(40, 53, 147), rgb(174, 185, 255)); stroke: light-dark(rgb(40, 53, 147), rgb(174, 185, 255));"/></g></g><g data-cell-id="e-h-rest"><g transform="translate(0.5,0.5)"><path d="M 135 130 L 543.66 169.39" fill="none" stroke="#7b1fa2" stroke-miterlimit="10" stroke-dasharray="3 3" pointer-events="stroke" style="stroke: light-dark(rgb(123, 31, 162), rgb(239, 160, 255));"/><path d="M 548.89 169.89 L 541.58 172.71 L 543.66 169.39 L 542.26 165.74 Z" fill="#7b1fa2" stroke="#7b1fa2" stroke-miterlimit="10" pointer-events="all" style="fill: light-dark(rgb(123, 31, 162), rgb(239, 160, 255)); stroke: light-dark(rgb(123, 31, 162), rgb(239, 160, 255));"/></g></g><g data-cell-id="e-hm-rest"><g transform="translate(0.5,0.5)"><path d="M 710 130 L 557.08 168.23" fill="none" stroke="#c62828" stroke-width="1.5" stroke-miterlimit="10" pointer-events="stroke" style="stroke: light-dark(rgb(198, 40, 40), rgb(255, 145, 145));"/><path d="M 551.63 169.59 L 557.99 164.14 L 557.08 168.23 L 559.81 171.41 Z" fill="#c62828" stroke="#c62828" stroke-width="1.5" stroke-miterlimit="10" pointer-events="all" style="fill: light-dark(rgb(198, 40, 40), rgb(255, 145, 145)); stroke: light-dark(rgb(198, 40, 40), rgb(255, 145, 145));"/></g></g><g data-cell-id="core-engine"><g transform="translate(0.5,0.5)"><path d="M 775 265 L 775 246 Q 775 240 769 240 L 21 240 Q 15 240 15 246 L 15 265" fill="#e8f5e9" stroke="#2e7d32" stroke-miterlimit="10" pointer-events="all" style="fill: light-dark(rgb(232, 245, 233), rgb(21, 33, 22)); stroke: light-dark(rgb(46, 125, 50), rgb(100, 168, 104));"/><path d="M 15 265 L 15 394 Q 15 400 21 400 L 769 400 Q 775 400 775 394 L 775 265" fill="none" stroke="#2e7d32" stroke-miterlimit="10" pointer-events="none" style="stroke: light-dark(rgb(46, 125, 50), rgb(100, 168, 104));"/><path d="M 15 265 L 775 265" fill="none" stroke="#2e7d32" stroke-miterlimit="10" pointer-events="none" style="stroke: light-dark(rgb(46, 125, 50), rgb(100, 168, 104));"/></g><g><g fill="#000000" font-family="Helvetica" font-weight="bold" text-anchor="middle" font-size="13px" style="fill: light-dark(rgb(0, 0, 0), rgb(255, 255, 255));"><text x="395" y="258">aw-agent 核心引擎</text></g></g><g data-cell-id="capture"><g transform="translate(0.5,0.5)"><rect x="30" y="275" width="90" height="50" rx="7.5" ry="7.5" fill="#a5d6a7" stroke="#2e7d32" pointer-events="all" style="fill: light-dark(rgb(165, 214, 167), rgb(35, 77, 36)); stroke: light-dark(rgb(46, 125, 50), rgb(100, 168, 104));"/></g><g><g fill="#000000" font-family="Helvetica" font-weight="bold" text-anchor="middle" font-size="10px" style="fill: light-dark(rgb(0, 0, 0), rgb(255, 255, 255));"><text x="75" y="298">capture_raw</text><text x="75" y="310">A 级</text></g></g></g><g data-cell-id="compile"><g transform="translate(0.5,0.5)"><rect x="135" y="275" width="110" height="50" rx="7.5" ry="7.5" fill="#a5d6a7" stroke="#2e7d32" pointer-events="all" style="fill: light-dark(rgb(165, 214, 167), rgb(35, 77, 36)); stroke: light-dark(rgb(46, 125, 50), rgb(100, 168, 104));"/></g><g><g fill="#000000" font-family="Helvetica" font-weight="bold" text-anchor="middle" font-size="9px" style="fill: light-dark(rgb(0, 0, 0), rgb(255, 255, 255));"><text x="190" y="292.5">compile_update</text><text x="190" y="303.5">analyze→apply</text><text x="190" y="314.5">B 级</text></g></g></g><g data-cell-id="query"><g transform="translate(0.5,0.5)"><rect x="260" y="275" width="100" height="50" rx="7.5" ry="7.5" fill="#a5d6a7" stroke="#2e7d32" pointer-events="all" style="fill: light-dark(rgb(165, 214, 167), rgb(35, 77, 36)); stroke: light-dark(rgb(46, 125, 50), rgb(100, 168, 104));"/></g><g><g fill="#000000" font-family="Helvetica" font-weight="bold" text-anchor="middle" font-size="9px" style="fill: light-dark(rgb(0, 0, 0), rgb(255, 255, 255));"><text x="310" y="292.5">query</text><text x="310" y="303.5">6类查询</text><text x="310" y="314.5">L1/L2/L3</text></g></g></g><g data-cell-id="approvals"><g transform="translate(0.5,0.5)"><rect x="375" y="275" width="120" height="50" rx="7.5" ry="7.5" fill="#ef9a9a" stroke="#c62828" pointer-events="all" style="fill: light-dark(rgb(239, 154, 154), rgb(147, 74, 74)); stroke: light-dark(rgb(198, 40, 40), rgb(255, 145, 145));"/></g><g><g fill="#000000" font-family="Helvetica" font-weight="bold" text-anchor="middle" font-size="9px" style="fill: light-dark(rgb(0, 0, 0), rgb(255, 255, 255));"><text x="435" y="298">proposal/approval</text><text x="435" y="309">C 级两步提交</text></g></g></g><g data-cell-id="lint"><g transform="translate(0.5,0.5)"><rect x="510" y="275" width="80" height="50" rx="7.5" ry="7.5" fill="#c5e1a5" stroke="#558b2f" pointer-events="all" style="fill: light-dark(rgb(197, 225, 165), rgb(38, 62, 11)); stroke: light-dark(rgb(85, 139, 47), rgb(103, 149, 70));"/></g><g><g fill="#000000" font-family="Helvetica" font-weight="bold" text-anchor="middle" font-size="10px" style="fill: light-dark(rgb(0, 0, 0), rgb(255, 255, 255));"><text x="550" y="298">lint</text><text x="550" y="310">健康检查</text></g></g></g><g data-cell-id="review"><g transform="translate(0.5,0.5)"><rect x="605" y="275" width="110" height="50" rx="7.5" ry="7.5" fill="#c5e1a5" stroke="#558b2f" pointer-events="all" style="fill: light-dark(rgb(197, 225, 165), rgb(38, 62, 11)); stroke: light-dark(rgb(85, 139, 47), rgb(103, 149, 70));"/></g><g><g fill="#000000" font-family="Helvetica" font-weight="bold" text-anchor="middle" font-size="9px" style="fill: light-dark(rgb(0, 0, 0), rgb(255, 255, 255));"><text x="660" y="298">weekly_review</text><text x="660" y="309">+review_queue</text></g></g></g><g data-cell-id="gate"><g transform="translate(0.5,0.5)"><rect x="30" y="340" width="140" height="45" rx="6.75" ry="6.75" fill="#fff9c4" stroke="#f57f17" pointer-events="all" style="fill: light-dark(rgb(255, 249, 196), rgb(33, 28, 0)); stroke: light-dark(rgb(245, 127, 23), rgb(199, 97, 8));"/></g><g><g fill="#000000" font-family="Helvetica" font-weight="bold" text-anchor="middle" font-size="9px" style="fill: light-dark(rgb(0, 0, 0), rgb(255, 255, 255));"><text x="100" y="360.5">Gate 分级</text><text x="100" y="371.5">A自动/B批量/C人工</text></g></g></g><g data-cell-id="identity"><g transform="translate(0.5,0.5)"><rect x="185" y="340" width="150" height="45" rx="6.75" ry="6.75" fill="#fff9c4" stroke="#f57f17" pointer-events="all" style="fill: light-dark(rgb(255, 249, 196), rgb(33, 28, 0)); stroke: light-dark(rgb(245, 127, 23), rgb(199, 97, 8));"/></g><g><g fill="#000000" font-family="Helvetica" font-weight="bold" text-anchor="middle" font-size="9px" style="fill: light-dark(rgb(0, 0, 0), rgb(255, 255, 255));"><text x="260" y="360.5">Identity Resolver</text><text x="260" y="371.5">agent/human/service</text></g></g></g><g data-cell-id="permission"><g transform="translate(0.5,0.5)"><rect x="350" y="340" width="135" height="45" rx="6.75" ry="6.75" fill="#fff9c4" stroke="#f57f17" pointer-events="all" style="fill: light-dark(rgb(255, 249, 196), rgb(33, 28, 0)); stroke: light-dark(rgb(245, 127, 23), rgb(199, 97, 8));"/></g><g><g fill="#000000" font-family="Helvetica" font-weight="bold" text-anchor="middle" font-size="9px" style="fill: light-dark(rgb(0, 0, 0), rgb(255, 255, 255));"><text x="417.5" y="355">Permission</text><text x="417.5" y="366">Agent+wiki+page_type</text><text x="417.5" y="377">+risk→gate</text></g></g></g><g data-cell-id="feedback"><g transform="translate(0.5,0.5)"><rect x="500" y="340" width="110" height="45" rx="6.75" ry="6.75" fill="#fff9c4" stroke="#f57f17" pointer-events="all" style="fill: light-dark(rgb(255, 249, 196), rgb(33, 28, 0)); stroke: light-dark(rgb(245, 127, 23), rgb(199, 97, 8));"/></g><g><g fill="#000000" font-family="Helvetica" font-weight="bold" text-anchor="middle" font-size="9px" style="fill: light-dark(rgb(0, 0, 0), rgb(255, 255, 255));"><text x="555" y="360.5">feedback→</text><text x="555" y="371.5">review_queue</text></g></g></g><g data-cell-id="sync"><g transform="translate(0.5,0.5)"><rect x="625" y="340" width="105" height="45" rx="6.75" ry="6.75" fill="#fff9c4" stroke="#f57f17" pointer-events="all" style="fill: light-dark(rgb(255, 249, 196), rgb(33, 28, 0)); stroke: light-dark(rgb(245, 127, 23), rgb(199, 97, 8));"/></g><g><g fill="#000000" font-family="Helvetica" font-weight="bold" text-anchor="middle" font-size="9px" style="fill: light-dark(rgb(0, 0, 0), rgb(255, 255, 255));"><text x="677.5" y="360.5">sync</text><text x="677.5" y="371.5">pull/push/status</text></g></g></g></g><g data-cell-id="e-mcp-core"><g><path d="M 185 215 L 235.44 236.74" fill="none" stroke="#0277bd" stroke-width="2" stroke-miterlimit="10" pointer-events="stroke" style="stroke: light-dark(rgb(2, 119, 189), rgb(69, 169, 229));"/><path d="M 240.95 239.11 L 232.02 239.62 L 235.44 236.74 L 235.18 232.27 Z" fill="#0277bd" stroke="#0277bd" stroke-width="2" stroke-miterlimit="10" pointer-events="all" style="fill: light-dark(rgb(2, 119, 189), rgb(69, 169, 229)); stroke: light-dark(rgb(2, 119, 189), rgb(69, 169, 229));"/></g></g><g data-cell-id="e-cli-core"><g><path d="M 375 215 L 389.86 233.57" fill="none" stroke="#0277bd" stroke-width="2" stroke-miterlimit="10" pointer-events="stroke" style="stroke: light-dark(rgb(2, 119, 189), rgb(69, 169, 229));"/><path d="M 393.6 238.25 L 385.48 234.51 L 389.86 233.57 L 391.73 229.51 Z" fill="#0277bd" stroke="#0277bd" stroke-width="2" stroke-miterlimit="10" pointer-events="all" style="fill: light-dark(rgb(2, 119, 189), rgb(69, 169, 229)); stroke: light-dark(rgb(2, 119, 189), rgb(69, 169, 229));"/></g></g><g data-cell-id="e-rest-core"><g><path d="M 550 215 L 547.98 231.82" fill="none" stroke="#0277bd" stroke-width="2" stroke-miterlimit="10" pointer-events="stroke" style="stroke: light-dark(rgb(2, 119, 189), rgb(69, 169, 229));"/><path d="M 547.27 237.78 L 544.25 229.36 L 547.98 231.82 L 552.19 230.31 Z" fill="#0277bd" stroke="#0277bd" stroke-width="2" stroke-miterlimit="10" pointer-events="all" style="fill: light-dark(rgb(2, 119, 189), rgb(69, 169, 229)); stroke: light-dark(rgb(2, 119, 189), rgb(69, 169, 229));"/></g></g><g data-cell-id="storage-layer"><g transform="translate(0.5,0.5)"><path d="M 515 455 L 515 436 Q 515 430 509 430 L 21 430 Q 15 430 15 436 L 15 455" fill="#fff3e0" stroke="#e65100" stroke-miterlimit="10" pointer-events="all" style="fill: light-dark(rgb(255, 243, 224), rgb(36, 26, 9)); stroke: light-dark(rgb(230, 81, 0), rgb(251, 123, 53));"/><path d="M 15 455 L 15 554 Q 15 560 21 560 L 509 560 Q 515 560 515 554 L 515 455" fill="none" stroke="#e65100" stroke-miterlimit="10" pointer-events="none" style="stroke: light-dark(rgb(230, 81, 0), rgb(251, 123, 53));"/><path d="M 15 455 L 515 455" fill="none" stroke="#e65100" stroke-miterlimit="10" pointer-events="none" style="stroke: light-dark(rgb(230, 81, 0), rgb(251, 123, 53));"/></g><g><g fill="#000000" font-family="Helvetica" font-weight="bold" text-anchor="middle" font-size="12px" style="fill: light-dark(rgb(0, 0, 0), rgb(255, 255, 255));"><text x="265" y="447.5">存储层</text></g></g><g data-cell-id="git-storage"><g transform="translate(0.5,0.5)"><rect x="30" y="465" width="155" height="75" rx="11.25" ry="11.25" fill="#ffcc80" stroke="#e65100" pointer-events="all" style="fill: light-dark(rgb(255, 204, 128), rgb(97, 53, 0)); stroke: light-dark(rgb(230, 81, 0), rgb(251, 123, 53));"/></g><g><g fill="#000000" font-family="Helvetica" font-weight="bold" text-anchor="middle" font-size="9px" style="fill: light-dark(rgb(0, 0, 0), rgb(255, 255, 255));"><text x="107.5" y="489.5">Git 仓库（权威源）</text><text x="107.5" y="500.5">pages/ + MANIFEST.jsonl</text><text x="107.5" y="511.5">+ retrieval_index.jsonl</text><text x="107.5" y="522.5">+ purpose.md + config.yaml</text></g></g></g><g data-cell-id="workspace"><g transform="translate(0.5,0.5)"><rect x="205" y="465" width="130" height="75" rx="11.25" ry="11.25" fill="#ffe0b2" stroke="#bf360c" pointer-events="all" style="fill: light-dark(rgb(255, 224, 178), rgb(66, 39, 0)); stroke: light-dark(rgb(191, 54, 12), rgb(255, 146, 110));"/></g><g><g fill="#000000" font-family="Helvetica" font-weight="bold" text-anchor="middle" font-size="9px" style="fill: light-dark(rgb(0, 0, 0), rgb(255, 255, 255));"><text x="270" y="495">Local Workspace</text><text x="270" y="506">（Agent写入区）</text><text x="270" y="517">pending + 临时文件</text></g></g></g><g data-cell-id="retrieval"><g transform="translate(0.5,0.5)"><rect x="355" y="465" width="140" height="75" rx="11.25" ry="11.25" fill="#ffe0b2" stroke="#bf360c" pointer-events="all" style="fill: light-dark(rgb(255, 224, 178), rgb(66, 39, 0)); stroke: light-dark(rgb(191, 54, 12), rgb(255, 146, 110));"/></g><g><g fill="#000000" font-family="Helvetica" font-weight="bold" text-anchor="middle" font-size="9px" style="fill: light-dark(rgb(0, 0, 0), rgb(255, 255, 255));"><text x="425" y="495">Retrieval Provider</text><text x="425" y="506">Phase 1: Lexical</text><text x="425" y="517">Optional: Vector</text></g></g></g></g><g data-cell-id="external-layer"><g transform="translate(0.5,0.5)"><path d="M 775 455 L 775 436 Q 775 430 769 430 L 541 430 Q 535 430 535 436 L 535 455" fill="#fce4ec" stroke="#880e4f" stroke-miterlimit="10" pointer-events="all" style="fill: light-dark(rgb(252, 228, 236), rgb(52, 31, 38)); stroke: light-dark(rgb(136, 14, 79), rgb(255, 172, 228));"/><path d="M 535 455 L 535 554 Q 535 560 541 560 L 769 560 Q 775 560 775 554 L 775 455" fill="none" stroke="#880e4f" stroke-miterlimit="10" pointer-events="none" style="stroke: light-dark(rgb(136, 14, 79), rgb(255, 172, 228));"/><path d="M 535 455 L 775 455" fill="none" stroke="#880e4f" stroke-miterlimit="10" pointer-events="none" style="stroke: light-dark(rgb(136, 14, 79), rgb(255, 172, 228));"/></g><g><g fill="#000000" font-family="Helvetica" font-weight="bold" text-anchor="middle" font-size="12px" style="fill: light-dark(rgb(0, 0, 0), rgb(255, 255, 255));"><text x="655" y="447.5">外部视图层（可替换）</text></g></g><g data-cell-id="obsidian"><g transform="translate(0.5,0.5)"><rect x="550" y="465" width="100" height="70" rx="10.5" ry="10.5" fill="#f48fb1" stroke="#880e4f" pointer-events="all" style="fill: light-dark(rgb(244, 143, 177), rgb(160, 73, 102)); stroke: light-dark(rgb(136, 14, 79), rgb(255, 172, 228));"/></g><g><g fill="#000000" font-family="Helvetica" font-weight="bold" text-anchor="middle" font-size="10px" style="fill: light-dark(rgb(0, 0, 0), rgb(255, 255, 255));"><text x="600" y="492">Obsidian Vault</text><text x="600" y="504">（双向同步）</text><text x="600" y="516">ContentAdapter</text></g></g></g><g data-cell-id="notion"><g transform="translate(0.5,0.5)"><rect x="665" y="465" width="95" height="70" rx="10.5" ry="10.5" fill="#f8bbd0" stroke="#ad1457" stroke-dasharray="3 3" pointer-events="all" style="fill: light-dark(rgb(248, 187, 208), rgb(103, 51, 69)); stroke: light-dark(rgb(173, 20, 87), rgb(255, 155, 213));"/></g><g><g fill="#000000" font-family="Helvetica" font-weight="bold" text-anchor="middle" font-size="10px" style="fill: light-dark(rgb(0, 0, 0), rgb(255, 255, 255));"><text x="712.5" y="492">Notion</text><text x="712.5" y="504">（Phase 2+）</text><text x="712.5" y="516">ContentAdapter</text></g></g></g></g><g data-cell-id="e-core-git"><g><path d="M 161.44 406.08 L 113.06 458.92" fill="none" stroke="#e65100" stroke-width="2" stroke-miterlimit="10" pointer-events="stroke" style="stroke: light-dark(rgb(230, 81, 0), rgb(251, 123, 53));"/><path d="M 165.49 401.65 L 163.04 410.25 L 161.44 406.08 L 157.14 404.85 Z" fill="#e65100" stroke="#e65100" stroke-width="2" stroke-miterlimit="10" pointer-events="all" style="fill: light-dark(rgb(230, 81, 0), rgb(251, 123, 53)); stroke: light-dark(rgb(230, 81, 0), rgb(251, 123, 53));"/><path d="M 109.01 463.35 L 111.46 454.75 L 113.06 458.92 L 117.36 460.15 Z" fill="#e65100" stroke="#e65100" stroke-width="2" stroke-miterlimit="10" pointer-events="all" style="fill: light-dark(rgb(230, 81, 0), rgb(251, 123, 53)); stroke: light-dark(rgb(230, 81, 0), rgb(251, 123, 53));"/></g></g><g data-cell-id="e-core-ws"><g transform="translate(0.5,0.5)"><path d="M 388.52 403.37 L 276.48 461.63" fill="none" stroke="#bf360c" stroke-width="1.5" stroke-miterlimit="10" pointer-events="stroke" style="stroke: light-dark(rgb(191, 54, 12), rgb(255, 146, 110));"/><path d="M 393.51 400.77 L 388.59 407.56 L 388.52 403.37 L 385.13 400.91 Z" fill="#bf360c" stroke="#bf360c" stroke-width="1.5" stroke-miterlimit="10" pointer-events="all" style="fill: light-dark(rgb(191, 54, 12), rgb(255, 146, 110)); stroke: light-dark(rgb(191, 54, 12), rgb(255, 146, 110));"/><path d="M 271.49 464.23 L 276.41 457.44 L 276.48 461.63 L 279.87 464.09 Z" fill="#bf360c" stroke="#bf360c" stroke-width="1.5" stroke-miterlimit="10" pointer-events="all" style="fill: light-dark(rgb(191, 54, 12), rgb(255, 146, 110)); stroke: light-dark(rgb(191, 54, 12), rgb(255, 146, 110));"/></g></g><g data-cell-id="e-core-retr"><g transform="translate(0.5,0.5)"><path d="M 616.06 402.28 L 431.94 462.72" fill="none" stroke="#bf360c" stroke-width="1.5" stroke-miterlimit="10" pointer-events="stroke" style="stroke: light-dark(rgb(191, 54, 12), rgb(255, 146, 110));"/><path d="M 621.41 400.52 L 615.45 406.43 L 616.06 402.28 L 613.11 399.3 Z" fill="#bf360c" stroke="#bf360c" stroke-width="1.5" stroke-miterlimit="10" pointer-events="all" style="fill: light-dark(rgb(191, 54, 12), rgb(255, 146, 110)); stroke: light-dark(rgb(191, 54, 12), rgb(255, 146, 110));"/><path d="M 426.59 464.48 L 432.55 458.57 L 431.94 462.72 L 434.89 465.7 Z" fill="#bf360c" stroke="#bf360c" stroke-width="1.5" stroke-miterlimit="10" pointer-events="all" style="fill: light-dark(rgb(191, 54, 12), rgb(255, 146, 110)); stroke: light-dark(rgb(191, 54, 12), rgb(255, 146, 110));"/></g></g><g data-cell-id="e-ws-obs"><g transform="translate(0.5,0.5)"><path d="M 342.3 502.42 L 542.7 500.08" fill="none" stroke="#880e4f" stroke-width="1.5" stroke-miterlimit="10" pointer-events="stroke" style="stroke: light-dark(rgb(136, 14, 79), rgb(255, 172, 228));"/><path d="M 336.68 502.48 L 344.13 498.64 L 342.3 502.42 L 344.22 506.14 Z" fill="#880e4f" stroke="#880e4f" stroke-width="1.5" stroke-miterlimit="10" pointer-events="all" style="fill: light-dark(rgb(136, 14, 79), rgb(255, 172, 228)); stroke: light-dark(rgb(136, 14, 79), rgb(255, 172, 228));"/><path d="M 548.32 500.02 L 540.87 503.86 L 542.7 500.08 L 540.78 496.36 Z" fill="#880e4f" stroke="#880e4f" stroke-width="1.5" stroke-miterlimit="10" pointer-events="all" style="fill: light-dark(rgb(136, 14, 79), rgb(255, 172, 228)); stroke: light-dark(rgb(136, 14, 79), rgb(255, 172, 228));"/></g></g><g data-cell-id="e-git-obs"><g transform="translate(0.5,0.5)"><path d="M 185 502.5 L 543.64 520.68" fill="none" stroke="#880e4f" stroke-miterlimit="10" stroke-dasharray="3 3" pointer-events="stroke" style="stroke: light-dark(rgb(136, 14, 79), rgb(255, 172, 228));"/><path d="M 548.88 520.94 L 541.72 524.08 L 543.64 520.68 L 542.07 517.09 Z" fill="#880e4f" stroke="#880e4f" stroke-miterlimit="10" pointer-events="all" style="fill: light-dark(rgb(136, 14, 79), rgb(255, 172, 228)); stroke: light-dark(rgb(136, 14, 79), rgb(255, 172, 228));"/></g></g><g data-cell-id="legend"><g transform="translate(0.5,0.5)"><rect x="15" y="575" width="760" height="40" rx="6" ry="6" fill="#fafafa" stroke="#bdbdbd" pointer-events="all" style="fill: light-dark(rgb(250, 250, 250), rgb(22, 22, 22)); stroke: light-dark(rgb(189, 189, 189), rgb(75, 75, 75));"/></g></g><g data-cell-id="leg1"><g transform="translate(0.5,0.5)"><rect x="35" y="583" width="80" height="20" fill="#f3e5f5" stroke="none" pointer-events="all" style="fill: light-dark(rgb(243, 229, 245), rgb(45, 33, 47));"/></g><g><g fill="#000000" font-family="Helvetica" font-weight="bold" text-anchor="start" font-size="9px" style="fill: light-dark(rgb(0, 0, 0), rgb(255, 255, 255));"><text x="37" y="598">🟣 Agent层</text></g></g></g><g data-cell-id="leg2"><g transform="translate(0.5,0.5)"><rect x="135" y="583" width="80" height="20" fill="#e1f5fe" stroke="none" pointer-events="all" style="fill: light-dark(rgb(225, 245, 254), rgb(15, 33, 40));"/></g><g><g fill="#000000" font-family="Helvetica" font-weight="bold" text-anchor="start" font-size="9px" style="fill: light-dark(rgb(0, 0, 0), rgb(255, 255, 255));"><text x="137" y="598">🔵 传输层</text></g></g></g><g data-cell-id="leg3"><g transform="translate(0.5,0.5)"><rect x="235" y="583" width="90" height="20" fill="#e8f5e9" stroke="none" pointer-events="all" style="fill: light-dark(rgb(232, 245, 233), rgb(21, 33, 22));"/></g><g><g fill="#000000" font-family="Helvetica" font-weight="bold" text-anchor="start" font-size="9px" style="fill: light-dark(rgb(0, 0, 0), rgb(255, 255, 255));"><text x="237" y="598">🟢 核心引擎</text></g></g></g><g data-cell-id="leg4"><g transform="translate(0.5,0.5)"><rect x="345" y="583" width="80" height="20" fill="#fff3e0" stroke="none" pointer-events="all" style="fill: light-dark(rgb(255, 243, 224), rgb(36, 26, 9));"/></g><g><g fill="#000000" font-family="Helvetica" font-weight="bold" text-anchor="start" font-size="9px" style="fill: light-dark(rgb(0, 0, 0), rgb(255, 255, 255));"><text x="347" y="598">🟠 存储层</text></g></g></g><g data-cell-id="leg5"><g transform="translate(0.5,0.5)"><rect x="445" y="583" width="80" height="20" fill="#fce4ec" stroke="none" pointer-events="all" style="fill: light-dark(rgb(252, 228, 236), rgb(52, 31, 38));"/></g><g><g fill="#000000" font-family="Helvetica" font-weight="bold" text-anchor="start" font-size="9px" style="fill: light-dark(rgb(0, 0, 0), rgb(255, 255, 255));"><text x="447" y="598">🔴 外部视图</text></g></g></g><g data-cell-id="leg6"><g transform="translate(0.5,0.5)"><rect x="545" y="583" width="220" height="20" fill="none" stroke="none" pointer-events="all"/></g><g><g fill="#757575" font-family="Helvetica" text-anchor="start" font-size="9px" style="fill: light-dark(rgb(117, 117, 117), rgb(137, 137, 137));"><text x="547" y="598">实线=主路径  虚线=可选/Phase2</text></g></g></g></g></g></g></svg>